<svg id="Layer_1" data-name="Layer 1" xmlns="http://www.w3.org/2000/svg" viewBox="0 0 320 320"><defs><style>.cls-1{fill:#f1eee8;}.cls-2{fill:#eb9641;}.cls-3,.cls-4{fill:none;stroke:#eb9641;stroke-miterlimit:10;}.cls-3{stroke-width:6px;}.cls-4{stroke-width:3px;}</style></defs><rect class="cls-1" width="320" height="320" rx="160"/><path class="cls-2" d="M70.41,124.69q-5.09,1.47-11.08-1.4-1.29-.62-4.13-2.11T51,118.92c-3.84-2.21-6.31-5-7.43-8.34s-.58-7.09,1.59-11.22a17.46,17.46,0,0,1,5.18-6.27,11.78,11.78,0,0,1,12.07-1.26.94.94,0,0,1,.52.65,1.24,1.24,0,0,1-.13.86L61.6,95.67a1.31,1.31,0,0,1-.62.63,1.71,1.71,0,0,1-1,0q-4-1.1-6.55.21a11,11,0,0,0-4.4,4.86q-4.27,8.11,4.6,13.2c.82.47,2.1,1.17,3.84,2.08s3.07,1.6,4,2q9.17,4.43,13.44-3.69a10.93,10.93,0,0,0,1.5-6.36c-.23-1.91-1.38-3.74-3.47-5.52a1.72,1.72,0,0,1-.57-.83,1.34,1.34,0,0,1,.16-.87l1.23-2.33a1.22,1.22,0,0,1,.64-.59.94.94,0,0,1,.83,0,11.87,11.87,0,0,1,4.24,4.29A12,12,0,0,1,81,109.22,17.4,17.4,0,0,1,78.76,117Q75.49,123.24,70.41,124.69Z" transform="translate(0)"/><path class="cls-2" d="M88,101.47a1.16,1.16,0,0,1-.86-.32L60.91,78.81a1.25,1.25,0,0,1-.46-.81,1.06,1.06,0,0,1,.29-.86l1.7-2a1.29,1.29,0,0,1,.83-.48,1.19,1.19,0,0,1,.88.35L90.38,97.34a1.18,1.18,0,0,1,.14,1.71l-1.71,2A1.09,1.09,0,0,1,88,101.47Z" transform="translate(0)"/><path class="cls-2" d="M94.39,93.23a1.26,1.26,0,0,1-.77-.51L72.94,65.22a1.3,1.3,0,0,1-.3-.92,1.09,1.09,0,0,1,.47-.78L84.6,54.87Q89.07,51.51,93,52a9.19,9.19,0,0,1,6.49,3.89,8.55,8.55,0,0,1,1.87,4.76,8.36,8.36,0,0,1-.85,4.23,9.55,9.55,0,0,1,5.09.46A9.37,9.37,0,0,1,110,68.62a11,11,0,0,1,2.16,5.11,9.72,9.72,0,0,1-.87,5.46,13,13,0,0,1-4.16,4.91L95.27,93A1.12,1.12,0,0,1,94.39,93.23Zm-1-25.38a7.72,7.72,0,0,0,3.24-4.37,5.44,5.44,0,0,0-1.18-4.55,5,5,0,0,0-3.91-2.27,8.25,8.25,0,0,0-5,2l-7.83,5.89,6.9,9.18Zm10.69,13.33a7.39,7.39,0,0,0,3.13-4.64,6.63,6.63,0,0,0-5.62-7.47,7.46,7.46,0,0,0-5.3,1.75L88,77,95.8,87.39Z" transform="translate(0)"/><path class="cls-2" d="M119.66,72.67q-4.71-2.22-7.24-9c-.37-1-.86-2.4-1.48-4.23s-1.08-3.23-1.38-4.2q-2.1-6.86.39-11.59t8.72-6.85q6.24-2.11,11.06.14t7.33,9c.72,1.91,1.23,3.29,1.52,4.16s.73,2.25,1.34,4.27q2.13,7-.23,11.57t-8.85,6.81Q124.36,74.88,119.66,72.67ZM135,64c1.05-2.15,1.08-4.92.08-8.29-.61-2-1-3.36-1.25-4s-.73-2-1.45-4c-1.26-3.29-3-5.47-5.12-6.56a9,9,0,0,0-7.21-.28,9.1,9.1,0,0,0-5.59,4.62c-1.06,2.17-1.07,4.94,0,8.3.3,1,.73,2.31,1.31,4s1,3,1.4,4c1.22,3.29,2.91,5.47,5.05,6.54A10.26,10.26,0,0,0,135,64Z" transform="translate(0)"/><path class="cls-3" d="M157.5,161.89" transform="translate(0)"/><path class="cls-4" d="M148.13,48.49A112.36,112.36,0,1,1,51.7,131.65" transform="translate(0)"/></svg>