<?xml version="1.0" standalone="no"?>
<!DOCTYPE svg PUBLIC "-//W3C//DTD SVG 20010904//EN"
 "http://www.w3.org/TR/2001/REC-SVG-20010904/DTD/svg10.dtd">
<svg version="1.0" xmlns="http://www.w3.org/2000/svg"
 width="700.000000pt" height="700.000000pt" viewBox="0 0 700.000000 700.000000"
 preserveAspectRatio="xMidYMid meet">
<metadata>
Created by potrace 1.14, written by Peter Selinger 2001-2017
</metadata>
<g transform="translate(0.000000,700.000000) scale(0.100000,-0.100000)"
fill="#000000" stroke="none">
<path d="M3316 6440 c-65 -5 -121 -11 -123 -14 -3 -3 18 -216 46 -473 28 -257
51 -475 51 -483 0 -13 31 -15 223 -15 185 -1 241 -4 337 -23 547 -103 1000
-403 1303 -862 157 -238 259 -511 303 -810 23 -160 16 -469 -15 -622 -144
-720 -634 -1280 -1316 -1507 -934 -311 -1956 123 -2385 1010 -187 389 -241
807 -159 1237 12 62 20 115 18 117 -5 5 -921 245 -935 245 -13 0 -49 -152 -77
-330 -17 -113 -21 -181 -21 -410 -1 -239 2 -295 22 -425 50 -319 138 -599 282
-890 379 -769 1070 -1329 1907 -1545 271 -71 495 -95 807 -87 311 7 544 45
818 134 985 316 1716 1099 1973 2111 31 123 64 350 76 523 25 363 -24 739
-146 1104 -149 448 -379 821 -714 1156 -412 411 -904 678 -1475 800 -247 53
-560 76 -800 59z"/>
</g>
</svg>
